<svg width="55" height="58" viewBox="0 0 55 58" fill="none" xmlns="http://www.w3.org/2000/svg">
<g clip-path="url(#clip0_641_447)">
<path d="M50.6665 37.3337V47.7503C50.6665 49.4079 50.008 50.9976 48.8359 52.1697C47.6638 53.3418 46.0741 54.0003 44.4165 54.0003H33.9998C31.0771 53.9973 28.2066 53.2258 25.6762 51.7631C23.1458 50.3005 21.0445 48.1981 19.5832 45.667C21.1537 45.6558 22.719 45.4826 24.254 45.1503C25.4231 46.6121 26.9061 47.792 28.5931 48.6028C30.2802 49.4135 32.1281 49.8342 33.9998 49.8337H44.4165C44.969 49.8337 45.4989 49.6142 45.8896 49.2235C46.2803 48.8328 46.4998 48.3029 46.4998 47.7503V37.3337C46.4993 35.4612 46.0774 33.6129 45.2652 31.9258C44.453 30.2387 43.2715 28.7561 41.8082 27.5878C42.1433 26.0531 42.3192 24.4878 42.3332 22.917C44.8643 24.3783 46.9667 26.4796 48.4293 29.01C49.892 31.5404 50.6635 34.4109 50.6665 37.3337ZM38.1186 24.1066C38.3134 21.4225 37.9282 18.7279 36.9891 16.2059C36.05 13.684 34.579 11.3937 32.676 9.49077C30.7731 7.58784 28.4829 6.11684 25.9609 5.17773C23.4389 4.23861 20.7443 3.85339 18.0603 4.04823C13.3038 4.59143 8.9101 6.85485 5.70645 10.4123C2.50281 13.9697 0.71031 18.5757 0.666504 23.3628L0.666504 33.8628C0.666504 39.1378 3.80609 41.5003 6.9165 41.5003H18.7915C23.5807 41.4591 28.1894 39.6678 31.7494 36.464C35.3093 33.2601 37.5747 28.8649 38.1186 24.1066ZM29.729 12.4399C31.208 13.9222 32.3514 15.7049 33.0818 17.6674C33.8121 19.6299 34.1124 21.7263 33.9623 23.8149C33.5177 27.5309 31.73 30.9562 28.9359 33.446C26.1418 35.9359 22.534 37.3185 18.7915 37.3337H6.9165C4.98317 37.3337 4.83317 34.6774 4.83317 33.8628V23.3628C4.85054 19.6219 6.23452 16.0164 8.72466 13.2246C11.2148 10.4329 14.6394 8.64754 18.354 8.20448C18.6998 8.17948 19.0457 8.16699 19.3915 8.16699C21.3108 8.1652 23.2117 8.54164 24.9854 9.27481C26.7592 10.008 28.3711 11.0835 29.729 12.4399Z" fill="#F63543"/>
</g>
<defs>
<clipPath id="clip0_641_447">
<rect width="50" height="50" fill="white" transform="translate(0.666504 4)"/>
</clipPath>
</defs>
</svg>
