<svg width="54" height="58" viewBox="0 0 54 58" fill="none" xmlns="http://www.w3.org/2000/svg">
<g clip-path="url(#clip0_887_207)">
<path d="M39.5833 6.08301H10.4167C7.65501 6.08632 5.00741 7.18485 3.05462 9.13763C1.10184 11.0904 0.00330804 13.738 0 16.4997L0 33.1663C0.00330804 35.928 1.10184 38.5756 3.05462 40.5284C5.00741 42.4812 7.65501 43.5797 10.4167 43.583H22.9167V47.7497H14.5833C14.0308 47.7497 13.5009 47.9692 13.1102 48.3599C12.7195 48.7506 12.5 49.2805 12.5 49.833C12.5 50.3855 12.7195 50.9154 13.1102 51.3061C13.5009 51.6968 14.0308 51.9163 14.5833 51.9163H35.4167C35.9692 51.9163 36.4991 51.6968 36.8898 51.3061C37.2805 50.9154 37.5 50.3855 37.5 49.833C37.5 49.2805 37.2805 48.7506 36.8898 48.3599C36.4991 47.9692 35.9692 47.7497 35.4167 47.7497H27.0833V43.583H39.5833C42.345 43.5797 44.9926 42.4812 46.9454 40.5284C48.8982 38.5756 49.9967 35.928 50 33.1663V16.4997C49.9967 13.738 48.8982 11.0904 46.9454 9.13763C44.9926 7.18485 42.345 6.08632 39.5833 6.08301ZM10.4167 10.2497H39.5833C41.2409 10.2497 42.8306 10.9082 44.0028 12.0803C45.1749 13.2524 45.8333 14.8421 45.8333 16.4997V31.083H4.16667V16.4997C4.16667 14.8421 4.82515 13.2524 5.99725 12.0803C7.16935 10.9082 8.75906 10.2497 10.4167 10.2497ZM39.5833 39.4163H10.4167C9.12862 39.411 7.87369 39.0078 6.82354 38.262C5.7734 37.5161 4.97934 36.4641 4.55 35.2497H45.45C45.0207 36.4641 44.2266 37.5161 43.1765 38.262C42.1263 39.0078 40.8714 39.411 39.5833 39.4163Z" fill="#F63543"/>
</g>
<defs>
<clipPath id="clip0_887_207">
<rect width="50" height="50" fill="white" transform="translate(0 4)"/>
</clipPath>
</defs>
</svg>
