<svg width="66" height="66" viewBox="0 0 66 66" fill="none" xmlns="http://www.w3.org/2000/svg">
<circle cx="33" cy="33" r="32" stroke="#363636" stroke-width="2"/>
<g clip-path="url(#clip0_1398_437)">
<path d="M44.7102 37.2898L36.5402 29.1198C36.0757 28.6542 35.524 28.2848 34.9165 28.0327C34.3091 27.7806 33.6579 27.6509 33.0002 27.6509C32.3425 27.6509 31.6913 27.7806 31.0839 28.0327C30.4764 28.2848 29.9246 28.6542 29.4602 29.1198L21.2902 37.2898C21.1019 37.4781 20.9961 37.7335 20.9961 37.9998C20.9961 38.2661 21.1019 38.5215 21.2902 38.7098C21.4785 38.8981 21.7339 39.0039 22.0002 39.0039C22.2665 39.0039 22.5219 38.8981 22.7102 38.7098L30.8802 30.5398C31.4427 29.978 32.2052 29.6625 33.0002 29.6625C33.7952 29.6625 34.5577 29.978 35.1202 30.5398L43.2902 38.7098C43.3832 38.8035 43.4938 38.8779 43.6156 38.9287C43.7375 38.9795 43.8682 39.0056 44.0002 39.0056C44.1322 39.0056 44.2629 38.9795 44.3848 38.9287C44.5066 38.8779 44.6172 38.8035 44.7102 38.7098C44.8039 38.6169 44.8783 38.5063 44.9291 38.3844C44.9798 38.2625 45.006 38.1318 45.006 37.9998C45.006 37.8678 44.9798 37.7371 44.9291 37.6152C44.8783 37.4934 44.8039 37.3828 44.7102 37.2898V37.2898Z" fill="#363636"/>
</g>
<defs>
<clipPath id="clip0_1398_437">
<rect width="24" height="24" fill="white" transform="translate(21 21)"/>
</clipPath>
</defs>
</svg>
