<svg width="55" height="58" viewBox="0 0 55 58" fill="none" xmlns="http://www.w3.org/2000/svg">
<g clip-path="url(#clip0_641_484)">
<path d="M41.7156 6.08301H11.2232C8.33597 6.08632 5.56803 7.18485 3.52648 9.13763C1.48493 11.0904 0.336466 13.738 0.333008 16.4997L0.333008 41.4997C0.336466 44.2613 1.48493 46.9089 3.52648 48.8617C5.56803 50.8145 8.33597 51.913 11.2232 51.9163H41.7156C44.6028 51.913 47.3707 50.8145 49.4123 48.8617C51.4538 46.9089 52.6023 44.2613 52.6057 41.4997V16.4997C52.6023 13.738 51.4538 11.0904 49.4123 9.13763C47.3707 7.18485 44.6028 6.08632 41.7156 6.08301ZM11.2232 10.2497H41.7156C43.4485 10.2497 45.1105 10.9082 46.3359 12.0803C47.5613 13.2524 48.2497 14.8421 48.2497 16.4997V18.583H4.68907V16.4997C4.68907 14.8421 5.37748 13.2524 6.60286 12.0803C7.82824 10.9082 9.49021 10.2497 11.2232 10.2497ZM41.7156 47.7497H11.2232C9.49021 47.7497 7.82824 47.0912 6.60286 45.9191C5.37748 44.747 4.68907 43.1573 4.68907 41.4997V22.7497H48.2497V41.4997C48.2497 43.1573 47.5613 44.747 46.3359 45.9191C45.1105 47.0912 43.4485 47.7497 41.7156 47.7497ZM41.7156 31.083C41.7156 31.6355 41.4861 32.1654 41.0777 32.5561C40.6692 32.9468 40.1152 33.1663 39.5376 33.1663H13.4012C12.8235 33.1663 12.2695 32.9468 11.8611 32.5561C11.4526 32.1654 11.2232 31.6355 11.2232 31.083C11.2232 30.5305 11.4526 30.0006 11.8611 29.6099C12.2695 29.2192 12.8235 28.9997 13.4012 28.9997H39.5376C40.1152 28.9997 40.6692 29.2192 41.0777 29.6099C41.4861 30.0006 41.7156 30.5305 41.7156 31.083ZM33.0035 39.4163C33.0035 39.9689 32.774 40.4988 32.3655 40.8895C31.9571 41.2802 31.4031 41.4997 30.8254 41.4997H13.4012C12.8235 41.4997 12.2695 41.2802 11.8611 40.8895C11.4526 40.4988 11.2232 39.9689 11.2232 39.4163C11.2232 38.8638 11.4526 38.3339 11.8611 37.9432C12.2695 37.5525 12.8235 37.333 13.4012 37.333H30.8254C31.4031 37.333 31.9571 37.5525 32.3655 37.9432C32.774 38.3339 33.0035 38.8638 33.0035 39.4163ZM6.8671 14.4163C6.8671 14.0043 6.99484 13.6015 7.23416 13.2589C7.47349 12.9163 7.81365 12.6493 8.21163 12.4916C8.60962 12.3339 9.04754 12.2927 9.47004 12.373C9.89254 12.4534 10.2806 12.6518 10.5852 12.9432C10.8898 13.2346 11.0973 13.6058 11.1813 14.0099C11.2653 14.414 11.2222 14.8329 11.0574 15.2136C10.8925 15.5943 10.6134 15.9197 10.2552 16.1486C9.897 16.3775 9.4759 16.4997 9.04513 16.4997C8.46748 16.4997 7.91349 16.2802 7.50503 15.8895C7.09657 15.4988 6.8671 14.9689 6.8671 14.4163ZM13.4012 14.4163C13.4012 14.0043 13.5289 13.6015 13.7683 13.2589C14.0076 12.9163 14.3477 12.6493 14.7457 12.4916C15.1437 12.3339 15.5816 12.2927 16.0041 12.373C16.4266 12.4534 16.8147 12.6518 17.1193 12.9432C17.4239 13.2346 17.6314 13.6058 17.7154 14.0099C17.7994 14.414 17.7563 14.8329 17.5915 15.2136C17.4266 15.5943 17.1474 15.9197 16.7893 16.1486C16.4311 16.3775 16.01 16.4997 15.5792 16.4997C15.0016 16.4997 14.4476 16.2802 14.0391 15.8895C13.6307 15.4988 13.4012 14.9689 13.4012 14.4163ZM19.9353 14.4163C19.9353 14.0043 20.063 13.6015 20.3023 13.2589C20.5417 12.9163 20.8818 12.6493 21.2798 12.4916C21.6778 12.3339 22.1157 12.2927 22.5382 12.373C22.9607 12.4534 23.3488 12.6518 23.6534 12.9432C23.958 13.2346 24.1655 13.6058 24.2495 14.0099C24.3335 14.414 24.2904 14.8329 24.1255 15.2136C23.9607 15.5943 23.6815 15.9197 23.3234 16.1486C22.9652 16.3775 22.5441 16.4997 22.1133 16.4997C21.5357 16.4997 20.9817 16.2802 20.5732 15.8895C20.1648 15.4988 19.9353 14.9689 19.9353 14.4163Z" fill="#F63543"/>
</g>
<defs>
<clipPath id="clip0_641_484">
<rect width="52.2727" height="50" fill="white" transform="translate(0.333008 4)"/>
</clipPath>
</defs>
</svg>
