<svg width="331" height="331" viewBox="0 0 331 331" fill="none" xmlns="http://www.w3.org/2000/svg">
<path d="M156.927 330.15V327.341H162.547V309.154H166.01V327.341H171.66V330.15H156.927Z" fill="#363636"/>
<path d="M130.154 326.675L133.438 305.935L136.858 306.476L135.422 315.549L145.231 317.103L146.668 308.03L150.087 308.572L146.803 329.313L143.383 328.771L144.792 319.878L134.982 318.324L133.574 327.217L130.154 326.675Z" fill="#363636"/>
<path d="M114.307 304.556L122.71 307.287L125.479 303.674L128.915 304.79L115.226 322.462L111.415 321.223L110.725 298.878L114.189 300.005L114.307 304.556ZM114.363 307.53L114.609 317.876L120.917 309.66L114.363 307.53Z" fill="#363636"/>
<path d="M91.9946 289.463L95.0765 291.034L97.2242 309.747L104.349 295.76L107.431 297.33L97.8762 316.087L94.7943 314.517L92.6329 295.831L85.5217 309.791L82.4398 308.22L91.9946 289.463Z" fill="#363636"/>
<path d="M77.0165 279.037L78.082 291.448L83.6141 283.832L86.4102 285.864L74.0474 302.884L71.2514 300.852L76.8902 293.089L64.6292 296.039L61.1219 293.49L74.7192 290.351L73.362 276.381L77.0165 279.037Z" fill="#363636"/>
<path d="M63.4622 266.664C64.4617 267.664 65.1899 268.735 65.6468 269.877C66.0895 271.034 66.218 272.163 66.0324 273.262C65.8467 274.362 65.3256 275.34 64.4688 276.197L61.8558 273.584C62.4413 272.884 62.7197 272.105 62.6911 271.248C62.6483 270.377 62.22 269.535 61.4061 268.721C60.5636 267.878 59.7069 267.421 58.8359 267.349C57.9506 267.292 57.1867 267.585 56.5442 268.228C56.0444 268.728 55.7874 269.285 55.7731 269.899C55.7445 270.499 55.8659 271.106 56.1372 271.72C56.3942 272.32 56.8083 273.105 57.3795 274.076C58.0934 275.305 58.6289 276.354 58.9858 277.226C59.3142 278.097 59.4142 279.025 59.2857 280.011C59.1572 280.996 58.6289 281.953 57.7007 282.881C56.844 283.738 55.8802 284.274 54.8093 284.488C53.7384 284.702 52.6461 284.595 51.5323 284.167C50.4186 283.738 49.3548 283.017 48.341 282.003C46.8989 280.56 46.085 279.018 45.8994 277.375C45.6852 275.733 46.1564 274.233 47.313 272.877L50.0116 275.576C49.5119 276.162 49.3048 276.883 49.3905 277.74C49.4762 278.597 49.9046 279.411 50.6756 280.182C51.3753 280.882 52.1249 281.275 52.9245 281.36C53.7241 281.446 54.4595 281.153 55.1306 280.482C55.5875 280.025 55.8302 279.511 55.8588 278.939C55.8588 278.368 55.7303 277.783 55.4733 277.183C55.2162 276.583 54.8164 275.812 54.2738 274.869C53.5599 273.612 53.0316 272.541 52.6889 271.656C52.3319 270.756 52.2248 269.806 52.3676 268.806C52.4819 267.806 53.0102 266.835 53.9526 265.893C54.7093 265.136 55.6303 264.629 56.7155 264.372C57.7864 264.1 58.9216 264.15 60.121 264.522C61.2918 264.893 62.4056 265.607 63.4622 266.664Z" fill="#363636"/>
<path d="M15.1007 233.875L17.6148 232.594L21.6647 240.544L27.2066 237.719L24.0491 231.521L26.5633 230.239L29.7208 236.438L37.9391 232.249L39.5041 235.322L20.7155 244.897L15.1007 233.875Z" fill="#363636"/>
<path d="M28.6088 209.495C29.2127 211.354 29.3367 213.21 28.981 215.063C28.5998 216.903 27.779 218.537 26.5187 219.963C25.2328 221.377 23.6082 222.403 21.6447 223.041C19.6813 223.679 17.7736 223.801 15.9218 223.407C14.0638 222.994 12.4495 222.152 11.079 220.881C9.68303 219.597 8.6831 218.026 8.07922 216.167C7.4691 214.289 7.35465 212.43 7.73585 210.59C8.09157 208.736 8.90274 207.106 10.1693 205.699C11.4359 204.291 13.051 203.268 15.0144 202.63C16.9779 201.992 18.8951 201.867 20.7662 202.255C22.618 202.649 24.2419 203.488 25.6379 204.771C27.0084 206.042 27.9987 207.617 28.6088 209.495ZM25.7502 210.424C25.3207 209.102 24.6394 208.02 23.7065 207.179C22.7543 206.344 21.6266 205.821 20.3234 205.609C18.9947 205.384 17.5892 205.512 16.107 205.994C14.6248 206.475 13.422 207.195 12.4985 208.152C11.5688 209.09 10.9737 210.173 10.7131 211.402C10.4526 212.631 10.5371 213.906 10.9666 215.229C11.3962 216.551 12.0774 217.633 13.0104 218.474C13.9433 219.315 15.0645 219.851 16.3739 220.082C17.6772 220.294 19.0699 220.159 20.5521 219.678C22.0343 219.196 23.2499 218.483 24.1988 217.539C25.1223 216.582 25.724 215.486 26.0038 214.251C26.2643 213.022 26.1798 211.746 25.7502 210.424Z" fill="#363636"/>
<path d="M22.4786 183.279L14.895 189.376L15.3062 191.972L23.6458 190.651L24.1845 194.053L3.33544 197.356L2.20132 190.193C1.94929 188.602 2.01663 187.215 2.40333 186.032C2.78689 184.829 3.40611 183.884 4.26101 183.198C5.11276 182.492 6.11861 182.047 7.27855 181.864C8.63849 181.648 9.94144 181.85 11.1874 182.468C12.4102 183.07 13.3508 184.154 14.0091 185.723L21.8359 179.221L22.4786 183.279ZM12.5763 192.404L11.9809 188.644C11.7792 187.371 11.308 186.467 10.5673 185.931C9.82333 185.376 8.91139 185.184 7.83144 185.355C6.75149 185.526 5.96193 185.978 5.46277 186.709C4.94361 187.444 4.78641 188.458 4.99119 189.751L5.5866 193.512L12.5763 192.404Z" fill="#363636"/>
<path d="M4.58809 125.032L24.4637 134.483L23.8541 138.333L7.38489 140.19L22.4317 147.315L21.8568 151.14L0.046875 153.711L0.618662 150.1L18.2783 148.493L2.03632 141.148L2.64118 137.328L20.2156 135.676L4.01158 128.673L4.58809 125.032Z" fill="#363636"/>
<path d="M25.9024 114.495L23.1849 122.86L26.8181 125.63L25.7069 129.051L7.9357 115.361L9.16837 111.567L31.5901 110.94L30.4695 114.39L25.9024 114.495ZM22.9183 114.542L12.5367 114.759L20.7985 121.067L22.9183 114.542Z" fill="#363636"/>
<path d="M21.8833 83.1121L24.3974 84.3935L21.8577 89.3791L38.1321 97.6733L36.5671 100.746L20.2927 92.4514L17.7393 97.4639L15.2251 96.1826L21.8833 83.1121Z" fill="#363636"/>
<path d="M33.9661 82.9779C32.2983 81.7659 31.0808 80.2949 30.3138 78.5651C29.5585 76.819 29.2933 75.0174 29.5181 73.1602C29.7383 71.2749 30.4236 69.5404 31.5739 67.9568C32.8902 66.1446 34.508 64.8633 36.4271 64.1128C38.3418 63.3341 40.348 63.2205 42.4456 63.772L40.0086 67.127C38.7891 66.9143 37.674 67.0393 36.6633 67.5021C35.6526 67.965 34.7737 68.7106 34.0266 69.7392C33.2083 70.8657 32.7325 72.0539 32.599 73.3039C32.4655 74.5538 32.6891 75.7765 33.2698 76.9718C33.8624 78.1507 34.7883 79.1977 36.0473 80.1127C37.3063 81.0276 38.5879 81.5848 39.892 81.7842C41.208 81.9673 42.4478 81.8082 43.6114 81.3068C44.7587 80.7935 45.7414 79.9737 46.5597 78.8472C47.3068 77.8186 47.7442 76.7521 47.872 75.6476C47.9997 74.5432 47.774 73.4437 47.1949 72.3494L49.6319 68.9944C50.8045 70.8194 51.3164 72.7629 51.1677 74.8249C51.0308 76.8706 50.3041 78.7995 48.9878 80.6117C47.8257 82.2117 46.3964 83.4055 44.7001 84.1932C42.9873 84.969 41.1842 85.2675 39.2905 85.0887C37.4087 84.8935 35.6339 84.1899 33.9661 82.9779Z" fill="#363636"/>
<path d="M54.965 42.0604L69.8506 56.9495L67.409 59.3917L60.8979 52.8791L53.8941 59.8845L60.4052 66.3971L57.9636 68.8393L43.078 53.9502L45.5197 51.508L51.9023 57.8921L58.906 50.8867L52.5234 44.5026L54.965 42.0604Z" fill="#363636"/>
<path d="M69.5297 30.702L81.8924 47.7219L79.0964 49.7538L66.7336 32.7339L69.5297 30.702Z" fill="#363636"/>
<path d="M107.438 32.9669L104.356 34.5376L87.9587 25.2766L95.0837 39.2633L92.0018 40.834L82.447 22.0772L85.5289 20.5065L101.913 29.7406L94.8015 15.7807L97.8833 14.2101L107.438 32.9669Z" fill="#363636"/>
<path d="M121.469 12.199C120.625 11.3714 119.661 10.8585 118.575 10.6605C117.483 10.4434 116.33 10.5318 115.118 10.926C113.789 11.3576 112.702 12.0394 111.855 12.9714C111.009 13.9033 110.465 15.0125 110.223 16.2988C110 17.5789 110.122 18.9376 110.589 20.375C111.056 21.8124 111.759 22.993 112.698 23.9169C113.649 24.8154 114.741 25.3928 115.974 25.6491C117.206 25.9054 118.487 25.8177 119.815 25.386C121.605 24.8042 122.896 23.8336 123.689 22.4741C124.482 21.1147 124.726 19.5415 124.423 17.7545L116.886 20.2037L116.037 17.5877L127.095 13.9936L127.926 16.5521C128.219 18.1733 128.125 19.7825 127.643 21.3798C127.181 22.9708 126.356 24.3938 125.167 25.6487C123.992 26.8783 122.528 27.7777 120.777 28.347C118.89 28.9601 117.027 29.0888 115.188 28.7331C113.342 28.3583 111.705 27.5448 110.277 26.2927C108.868 25.0344 107.846 23.4278 107.211 21.4729C106.576 19.5181 106.459 17.6175 106.859 15.7711C107.279 13.9184 108.128 12.3075 109.407 10.9383C110.699 9.54376 112.279 8.54305 114.146 7.93622C116.283 7.2418 118.35 7.15262 120.348 7.66868C122.359 8.15933 124.051 9.24091 125.424 10.9134L121.469 12.199Z" fill="#363636"/>
<path d="M173.165 0.150391V2.95997H167.545V21.1467H164.083V2.95997H158.432V0.150391H173.165Z" fill="#363636"/>
<path d="M199.939 3.62696L196.655 24.3677L193.235 23.8259L194.672 14.7537L184.862 13.1997L183.426 22.2719L180.006 21.7301L183.29 0.989357L186.71 1.53114L185.302 10.4243L195.111 11.9783L196.519 3.08518L199.939 3.62696Z" fill="#363636"/>
<path d="M215.787 25.7463L207.384 23.0156L204.614 26.6285L201.178 25.5118L214.868 7.84014L218.679 9.07883L219.369 31.4238L215.904 30.2977L215.787 25.7463ZM215.731 22.7725L215.485 12.4267L209.177 20.6423L215.731 22.7725Z" fill="#363636"/>
<path d="M238.099 40.8379L235.017 39.2672L232.869 20.5547L225.744 34.5414L222.662 32.9708L232.217 14.214L235.299 15.7846L237.46 34.4702L244.572 20.5104L247.653 22.081L238.099 40.8379Z" fill="#363636"/>
<path d="M253.077 51.2637L252.012 38.8529L246.48 46.469L243.684 44.4371L256.046 27.4172L258.842 29.4491L253.204 37.2122L265.465 34.2616L268.972 36.8104L255.375 39.9498L256.732 53.9194L253.077 51.2637Z" fill="#363636"/>
<path d="M266.632 63.6379C265.632 62.6381 264.904 61.5669 264.447 60.4244C264.004 59.2675 263.876 58.1392 264.061 57.0395C264.247 55.9398 264.768 54.9615 265.625 54.1045L268.238 56.7182C267.652 57.418 267.374 58.1964 267.403 59.0533C267.445 59.9245 267.874 60.7671 268.688 61.5812C269.53 62.4239 270.387 62.8809 271.258 62.9523C272.143 63.0094 272.907 62.7167 273.55 62.074C274.049 61.5741 274.306 61.0171 274.321 60.403C274.349 59.8031 274.228 59.1961 273.957 58.582C273.7 57.9821 273.285 57.1966 272.714 56.2254C272 54.9972 271.465 53.9474 271.108 53.0762C270.78 52.205 270.68 51.2767 270.808 50.2912C270.937 49.3058 271.465 48.3489 272.393 47.4205C273.25 46.5636 274.214 46.028 275.284 45.8138C276.355 45.5995 277.448 45.7067 278.561 46.1351C279.675 46.5636 280.739 47.2848 281.753 48.2989C283.195 49.7414 284.009 51.2838 284.194 52.9263C284.409 54.5687 283.937 56.0683 282.781 57.4251L280.082 54.7258C280.582 54.1402 280.789 53.419 280.703 52.5621C280.618 51.7051 280.189 50.8911 279.418 50.1198C278.718 49.42 277.969 49.0273 277.169 48.9416C276.37 48.8559 275.634 49.1487 274.963 49.8199C274.506 50.2769 274.264 50.7911 274.235 51.3624C274.235 51.9337 274.363 52.5192 274.621 53.1191C274.878 53.7189 275.277 54.4902 275.82 55.4328C276.534 56.6896 277.062 57.7608 277.405 58.6463C277.762 59.546 277.869 60.4958 277.726 61.4955C277.612 62.4953 277.084 63.4665 276.141 64.4091C275.384 65.166 274.463 65.6731 273.378 65.9301C272.307 66.2015 271.172 66.1515 269.973 65.7802C268.802 65.4088 267.688 64.6947 266.632 63.6379Z" fill="#363636"/>
<path d="M314.993 96.4264L312.479 97.7078L308.429 89.7577L302.887 92.5821L306.045 98.7805L303.53 100.062L300.373 93.8634L292.155 98.0519L290.59 94.9796L309.378 85.4041L314.993 96.4264Z" fill="#363636"/>
<path d="M301.484 120.807C300.88 118.948 300.756 117.092 301.112 115.239C301.493 113.399 302.314 111.765 303.574 110.338C304.86 108.925 306.485 107.899 308.448 107.261C310.412 106.623 312.319 106.501 314.171 106.895C316.029 107.308 317.643 108.15 319.014 109.421C320.41 110.704 321.41 112.276 322.014 114.135C322.624 116.013 322.738 117.872 322.357 119.712C322.001 121.565 321.19 123.196 319.923 124.603C318.657 126.011 317.042 127.033 315.078 127.671C313.115 128.31 311.198 128.435 309.327 128.047C307.475 127.653 305.851 126.814 304.455 125.53C303.084 124.259 302.094 122.685 301.484 120.807ZM304.343 119.878C304.772 121.2 305.453 122.282 306.386 123.123C307.338 123.958 308.466 124.481 309.769 124.693C311.098 124.918 312.504 124.79 313.986 124.308C315.468 123.826 316.671 123.107 317.594 122.15C318.524 121.212 319.119 120.129 319.38 118.9C319.64 117.671 319.556 116.396 319.126 115.073C318.697 113.751 318.015 112.669 317.082 111.828C316.149 110.987 315.028 110.451 313.719 110.22C312.416 110.008 311.023 110.142 309.541 110.624C308.058 111.106 306.843 111.819 305.894 112.763C304.97 113.72 304.369 114.816 304.089 116.051C303.828 117.28 303.913 118.555 304.343 119.878Z" fill="#363636"/>
<path d="M307.615 147.022L315.199 140.926L314.788 138.33L306.448 139.651L305.909 136.249L326.758 132.946L327.892 140.108C328.144 141.7 328.077 143.087 327.69 144.27C327.307 145.473 326.688 146.418 325.833 147.104C324.981 147.81 323.975 148.254 322.815 148.438C321.455 148.654 320.152 148.452 318.906 147.834C317.684 147.232 316.743 146.147 316.085 144.579L308.258 151.081L307.615 147.022ZM317.517 137.897L318.113 141.658C318.315 142.931 318.786 143.835 319.527 144.371C320.27 144.926 321.182 145.118 322.262 144.947C323.342 144.776 324.132 144.324 324.631 143.592C325.15 142.858 325.307 141.844 325.103 140.55L324.507 136.79L317.517 137.897Z" fill="#363636"/>
<path d="M325.506 205.269L305.63 195.819L306.24 191.969L322.709 190.112L307.662 182.986L308.237 179.162L330.047 176.59L329.475 180.201L311.815 181.809L328.057 189.154L327.453 192.974L309.878 194.626L326.082 201.628L325.506 205.269Z" fill="#363636"/>
<path d="M304.189 215.806L306.907 207.441L303.274 204.671L304.385 201.25L322.156 214.939L320.923 218.734L298.502 219.361L299.622 215.911L304.189 215.806ZM307.173 215.759L317.555 215.542L309.293 209.233L307.173 215.759Z" fill="#363636"/>
<path d="M308.211 247.19L305.696 245.908L308.236 240.923L291.962 232.628L293.527 229.556L309.801 237.85L312.354 232.838L314.869 234.119L308.211 247.19Z" fill="#363636"/>
<path d="M296.128 247.324C297.795 248.536 299.013 250.007 299.78 251.737C300.535 253.483 300.8 255.285 300.576 257.142C300.355 259.027 299.67 260.762 298.52 262.345C297.204 264.158 295.586 265.439 293.667 266.189C291.752 266.968 289.746 267.082 287.648 266.53L290.085 263.175C291.305 263.388 292.42 263.263 293.43 262.8C294.441 262.337 295.32 261.592 296.067 260.563C296.885 259.437 297.361 258.248 297.495 256.998C297.628 255.748 297.405 254.526 296.824 253.33C296.231 252.152 295.305 251.105 294.046 250.19C292.787 249.275 291.506 248.717 290.202 248.518C288.886 248.335 287.646 248.494 286.482 248.995C285.335 249.509 284.352 250.329 283.534 251.455C282.787 252.484 282.35 253.55 282.222 254.655C282.094 255.759 282.32 256.859 282.899 257.953L280.462 261.308C279.289 259.483 278.777 257.539 278.926 255.477C279.063 253.432 279.79 251.503 281.106 249.691C282.268 248.091 283.697 246.897 285.394 246.109C287.106 245.333 288.91 245.035 290.803 245.214C292.685 245.409 294.46 246.112 296.128 247.324Z" fill="#363636"/>
<path d="M275.128 288.241L260.243 273.352L262.684 270.91L269.195 277.422L276.199 270.417L269.688 263.904L272.13 261.462L287.015 276.351L284.574 278.793L278.191 272.409L271.187 279.415L277.57 285.799L275.128 288.241Z" fill="#363636"/>
<path d="M260.564 299.599L248.201 282.579L250.997 280.547L263.36 297.567L260.564 299.599Z" fill="#363636"/>
<path d="M222.655 297.334L225.736 295.764L242.134 305.025L235.009 291.038L238.091 289.467L247.646 308.224L244.564 309.795L228.18 300.561L235.291 314.521L232.209 316.091L222.655 297.334Z" fill="#363636"/>
<path d="M208.625 318.102C209.469 318.93 210.433 319.443 211.519 319.641C212.611 319.858 213.764 319.769 214.976 319.375C216.304 318.944 217.392 318.262 218.238 317.33C219.085 316.398 219.629 315.289 219.871 314.002C220.093 312.722 219.971 311.364 219.504 309.926C219.037 308.489 218.335 307.308 217.396 306.384C216.445 305.486 215.352 304.909 214.12 304.652C212.888 304.396 211.607 304.484 210.279 304.915C208.489 305.497 207.197 306.468 206.405 307.827C205.612 309.187 205.367 310.76 205.671 312.547L213.207 310.098L214.057 312.714L202.998 316.308L202.167 313.749C201.875 312.128 201.969 310.519 202.451 308.922C202.913 307.331 203.738 305.908 204.926 304.653C206.102 303.423 207.565 302.524 209.317 301.954C211.204 301.341 213.067 301.213 214.906 301.568C216.751 301.943 218.388 302.756 219.817 304.009C221.226 305.267 222.248 306.874 222.883 308.828C223.518 310.783 223.635 312.684 223.234 314.53C222.815 316.383 221.965 317.994 220.686 319.363C219.394 320.758 217.815 321.758 215.947 322.365C213.811 323.059 211.743 323.149 209.746 322.633C207.735 322.142 206.043 321.06 204.669 319.388L208.625 318.102Z" fill="#363636"/>
</svg>
