<svg width="27" height="32" viewBox="0 0 27 32" fill="none" xmlns="http://www.w3.org/2000/svg">
<path d="M15.4043 19.0938C15.4043 20.7982 15.082 22.4023 14.4375 23.9062C13.793 25.3958 12.9121 26.6992 11.7949 27.8164C10.6921 28.9193 9.38867 29.793 7.88477 30.4375C6.39518 31.082 4.79818 31.4043 3.09375 31.4043C2.0625 31.4043 1.03125 31.2754 0 31.0176V24.4004C0.458333 24.6725 0.952474 24.8802 1.48242 25.0234C2.01237 25.1667 2.54948 25.2383 3.09375 25.2383C3.9388 25.2383 4.73372 25.0807 5.47852 24.7656C6.23763 24.4362 6.89648 23.9922 7.45508 23.4336C8.01367 22.875 8.45052 22.2233 8.76562 21.4785C9.09505 20.7337 9.25977 19.9388 9.25977 19.0938V0.595703H15.4043V19.0938Z" fill="black"/>
<path d="M20.5703 28.4043C20.5703 26.7474 21.9135 25.4043 23.5703 25.4043C25.2272 25.4043 26.5703 26.7474 26.5703 28.4043C26.5703 30.0612 25.2272 31.4043 23.5703 31.4043C21.9135 31.4043 20.5703 30.0612 20.5703 28.4043Z" fill="black"/>
</svg>
